<?xml version="1.0" standalone="no"?>
<!DOCTYPE svg PUBLIC "-//W3C//DTD SVG 20010904//EN"
 "http://www.w3.org/TR/2001/REC-SVG-20010904/DTD/svg10.dtd">
<svg version="1.0" xmlns="http://www.w3.org/2000/svg"
 width="233.000000pt" height="233.000000pt" viewBox="0 0 233.000000 233.000000"
 preserveAspectRatio="xMidYMid meet">

<g transform="translate(0.000000,233.000000) scale(0.100000,-0.100000)"
fill="#005594" stroke="none">
<path d="M995 2223 c-334 -53 -630 -265 -779 -558 -130 -256 -150 -531 -60
-817 91 -288 321 -534 606 -647 222 -88 507 -95 734 -17 268 91 491 288 614
541 79 162 95 237 95 450 0 164 -3 188 -27 275 -34 121 -74 211 -142 314 -149
227 -343 363 -626 438 -55 14 -116 20 -230 23 -85 2 -168 1 -185 -2z m395
-140 c104 -26 251 -94 327 -150 344 -256 471 -714 308 -1114 -86 -212 -286
-412 -504 -504 -125 -53 -217 -70 -371 -69 -197 0 -353 45 -507 146 -483 316
-564 1028 -163 1438 241 245 574 338 910 253z"/>
<path d="M1065 1764 c-142 -30 -230 -77 -325 -173 -181 -182 -221 -446 -104
-678 66 -130 144 -189 175 -132 9 18 6 28 -20 63 -97 128 -125 207 -124 341 0
78 5 113 23 158 51 134 162 249 287 298 71 27 213 37 296 19 140 -29 270 -132
333 -263 84 -178 64 -374 -53 -525 -45 -58 -51 -80 -31 -100 50 -50 160 87
203 253 19 72 21 231 5 300 -7 28 -29 86 -51 131 -72 152 -215 263 -384 299
-65 14 -184 18 -230 9z"/>
<path d="M1042 1554 c-97 -48 -115 -99 -110 -309 3 -143 4 -152 31 -198 15
-26 47 -60 69 -75 37 -24 51 -27 128 -27 78 0 91 3 128 28 23 15 54 46 69 69
27 40 28 46 31 202 4 176 -3 217 -45 267 -62 73 -201 93 -301 43z m207 -83
c44 -32 54 -76 49 -227 -4 -144 -17 -182 -68 -209 -43 -22 -112 -19 -144 6
-49 39 -56 65 -56 227 0 138 2 151 22 177 45 57 136 69 197 26z"/>
<path d="M749 1178 c-16 -30 -3 -122 27 -187 54 -119 149 -199 272 -229 l72
-17 0 -62 0 -62 -86 -3 c-99 -3 -117 -16 -96 -62 l12 -26 208 0 c218 0 232 3
232 45 0 36 -20 45 -96 45 l-72 0 -7 59 c-4 33 -4 64 -1 69 3 5 25 12 48 16
107 17 247 134 286 238 11 29 23 79 27 110 7 53 6 57 -18 73 -41 26 -63 7 -70
-58 -7 -73 -46 -145 -107 -200 -65 -59 -131 -82 -235 -82 -68 0 -89 4 -137 28
-77 38 -133 103 -158 185 -11 35 -20 76 -20 91 0 15 -5 32 -12 39 -19 19 -56
14 -69 -10z"/>
</g>
</svg>
